<svg width="14" height="14" viewBox="0 0 14 14" fill="none" xmlns="http://www.w3.org/2000/svg">
<mask id="mask0_509_4600" style="mask-type:alpha" maskUnits="userSpaceOnUse" x="0" y="0" width="14" height="14">
<path d="M7.112 0C8.64 0 9.89 1.135 9.93 2.562H13.28C13.678 2.562 14 2.862 14 3.234C14 3.605 13.678 3.906 13.28 3.906H12.561V11.431C12.561 12.852 11.534 14 10.268 14H3.808C2.541 14 1.514 12.845 1.514 11.43V3.9H0.719C0.322 3.9 0 3.6 0 3.228C0 2.857 0.322 2.556 0.72 2.556H4.287C4.339 1.134 5.584 0 7.112 0ZM11.395 3.956H2.93V11.469C2.93 12.237 3.432 12.775 3.888 12.775V12.782H10.438C10.894 12.782 11.395 12.244 11.395 11.475V3.956ZM4.884 5.783C5.242 5.783 5.534 6.081 5.534 6.453V10.285C5.534 10.658 5.242 10.956 4.884 10.956H4.883L4.786 10.949C4.5 10.906 4.28 10.677 4.239 10.385L4.233 10.285V6.454C4.233 6.081 4.526 5.783 4.883 5.783H4.884ZM7.163 5.783C7.521 5.783 7.814 6.081 7.814 6.453V10.285C7.814 10.658 7.521 10.956 7.163 10.956C6.805 10.956 6.512 10.658 6.512 10.285V6.454C6.512 6.081 6.805 5.783 7.162 5.783H7.163ZM9.116 5.783C9.474 5.783 9.767 6.081 9.767 6.453V10.285C9.767 10.658 9.474 10.956 9.117 10.956C8.75 10.956 8.465 10.658 8.465 10.285V6.454C8.465 6.081 8.758 5.783 9.116 5.783ZM7.004 1.217C6.221 1.217 5.587 1.75 5.534 2.435H8.465C8.421 1.75 7.787 1.217 7.004 1.217Z" fill="white"/>
</mask>
<g mask="url(#mask0_509_4600)">
<path d="M7.112 0C8.64 0 9.89 1.135 9.93 2.562H13.28C13.678 2.562 14 2.862 14 3.234C14 3.605 13.678 3.906 13.28 3.906H12.561V11.431C12.561 12.852 11.534 14 10.268 14H3.808C2.541 14 1.514 12.845 1.514 11.43V3.9H0.719C0.322 3.9 0 3.6 0 3.228C0 2.857 0.322 2.556 0.72 2.556H4.287C4.339 1.134 5.584 0 7.112 0ZM11.395 3.956H2.93V11.469C2.93 12.237 3.432 12.775 3.888 12.775V12.782H10.438C10.894 12.782 11.395 12.244 11.395 11.475V3.956ZM4.884 5.783C5.242 5.783 5.534 6.081 5.534 6.453V10.285C5.534 10.658 5.242 10.956 4.884 10.956H4.883L4.786 10.949C4.5 10.906 4.28 10.677 4.239 10.385L4.233 10.285V6.454C4.233 6.081 4.526 5.783 4.883 5.783H4.884ZM7.163 5.783C7.521 5.783 7.814 6.081 7.814 6.453V10.285C7.814 10.658 7.521 10.956 7.163 10.956C6.805 10.956 6.512 10.658 6.512 10.285V6.454C6.512 6.081 6.805 5.783 7.162 5.783H7.163ZM9.116 5.783C9.474 5.783 9.767 6.081 9.767 6.453V10.285C9.767 10.658 9.474 10.956 9.117 10.956C8.75 10.956 8.465 10.658 8.465 10.285V6.454C8.465 6.081 8.758 5.783 9.116 5.783ZM7.004 1.217C6.221 1.217 5.587 1.75 5.534 2.435H8.465C8.421 1.75 7.787 1.217 7.004 1.217Z" fill="#707070"/>
<g filter="url(#filter0_d_509_4600)">
<path d="M0 0H14V14H0V0Z" fill="black"/>
</g>
<path d="M0 0H14V14H0V0Z" fill="url(#paint0_linear_509_4600)"/>
</g>
<defs>
<filter id="filter0_d_509_4600" x="-20" y="-10" width="54" height="54" filterUnits="userSpaceOnUse" color-interpolation-filters="sRGB">
<feFlood flood-opacity="0" result="BackgroundImageFix"/>
<feColorMatrix in="SourceAlpha" type="matrix" values="0 0 0 0 0 0 0 0 0 0 0 0 0 0 0 0 0 0 127 0" result="hardAlpha"/>
<feOffset dy="10"/>
<feGaussianBlur stdDeviation="10"/>
<feColorMatrix type="matrix" values="0 0 0 0 0.235294 0 0 0 0 0.556863 0 0 0 0 0.996078 0 0 0 0.2 0"/>
<feBlend mode="normal" in2="BackgroundImageFix" result="effect1_dropShadow_509_4600"/>
<feBlend mode="normal" in="SourceGraphic" in2="effect1_dropShadow_509_4600" result="shape"/>
</filter>
<linearGradient id="paint0_linear_509_4600" x1="0.15708" y1="12.3507" x2="14" y2="12.3507" gradientUnits="userSpaceOnUse">
<stop stop-color="#5FABFF"/>
<stop offset="1" stop-color="#3678FE"/>
</linearGradient>
</defs>
</svg>
