<svg width="22" height="17" viewBox="0 0 22 17" fill="none" xmlns="http://www.w3.org/2000/svg">
<path d="M13.4756 2.45177C15.5726 2.60317 17.3525 3.47594 18.7161 4.4929C20.2134 5.60852 21.2867 6.94802 21.8367 7.88909C22.0544 8.26855 22.0544 8.7315 21.8367 9.11096C21.2867 10.052 20.2134 11.3915 18.7161 12.5072C17.3525 13.5241 15.5726 14.3969 13.4756 14.5487L10.5116 16.7571C10.1067 17.0607 9.55667 17.0797 9.12505 16.8141C8.69726 16.5446 8.47954 16.04 8.57885 15.5467L8.94935 13.7025C8.17779 13.3609 7.54373 12.9473 6.91732 12.5072C6.36348 12.0708 5.80963 11.6002 5.39329 11.1297L1.838 13.1902C1.36017 13.4672 0.754761 13.3913 0.361914 13.0043C0.170784 12.8161 0.0474959 12.5706 0.0111823 12.3058C-0.0251313 12.0409 0.0275598 11.7716 0.161079 11.5395L1.90981 8.50003L0.161079 5.46053C0.0275598 5.22848 -0.0251313 4.95913 0.0111823 4.69429C0.0474959 4.42945 0.170784 4.18392 0.361914 3.9958C0.754761 3.60875 1.36017 3.53286 1.838 3.80986L5.39329 5.87035C5.80963 5.39981 6.36348 4.92928 6.91732 4.4929C7.54373 4.05272 8.17779 3.63911 8.94935 3.29759L8.57885 1.45264C8.47954 0.958958 8.69726 0.45541 9.12505 0.18713C9.55667 -0.0815299 10.1067 -0.0591416 10.5116 0.242911L13.4756 2.45177ZM15.8896 7.28575C15.2135 7.28575 14.6673 7.82838 14.6673 8.50003C14.6673 9.17168 15.2135 9.71431 15.8896 9.71431C16.5657 9.71431 17.1119 9.17168 17.1119 8.50003C17.1119 7.82838 16.5657 7.28575 15.8896 7.28575Z" fill="white"/>
</svg>
