<svg width="30" height="30" viewBox="0 0 30 30" fill="none" xmlns="http://www.w3.org/2000/svg">
<circle cx="15" cy="15" r="15" fill="url(#paint0_linear_583_5762)"/>
<path d="M22.7501 13.749H22.2502V10.7496C22.2502 10.617 22.1975 10.4898 22.1038 10.3961C22.01 10.3023 21.8828 10.2496 21.7503 10.2496H9.75237C9.634 10.2516 9.51878 10.2114 9.42723 10.1364C9.33568 10.0613 9.27375 9.95618 9.25246 9.83972V9.65975C9.27375 9.54329 9.33568 9.43817 9.42723 9.3631C9.51878 9.28804 9.634 9.24789 9.75237 9.24982H21.5403C21.6729 9.24982 21.8 9.19716 21.8938 9.1034C21.9875 9.00965 22.0402 8.8825 22.0402 8.74991C22.0402 8.61733 21.9875 8.49017 21.8938 8.39642C21.8 8.30267 21.6729 8.25 21.5403 8.25H9.75237C9.35461 8.25 8.97315 8.40801 8.69189 8.68926C8.41064 8.97052 8.25263 9.35198 8.25263 9.74974C8.24912 9.80967 8.24912 9.86977 8.25263 9.92971V20.2129C8.25459 20.4821 8.30955 20.7482 8.41438 20.9961C8.5192 21.2441 8.67183 21.4689 8.86355 21.6578C9.05527 21.8468 9.28233 21.9961 9.53176 22.0973C9.78119 22.1985 10.0481 22.2495 10.3173 22.2475H21.7503C21.8828 22.2475 22.01 22.1949 22.1038 22.1011C22.1975 22.0074 22.2502 21.8802 22.2502 21.7476V18.7482H22.7501C22.8827 18.7482 23.0098 18.6955 23.1036 18.6017C23.1973 18.508 23.25 18.3808 23.25 18.2482V14.2489C23.25 14.1164 23.1973 13.9892 23.1036 13.8955C23.0098 13.8017 22.8827 13.749 22.7501 13.749ZM21.2504 21.2477H10.3173C10.0392 21.2504 9.77136 21.1432 9.57195 20.9494C9.37254 20.7556 9.25771 20.4909 9.25246 20.2129V11.1895C9.41473 11.2365 9.58358 11.2568 9.75237 11.2495H21.2504V13.749H17.751C17.088 13.749 16.4523 14.0124 15.9835 14.4811C15.5147 14.9499 15.2514 15.5857 15.2514 16.2486C15.2514 16.9115 15.5147 17.5473 15.9835 18.0161C16.4523 18.4848 17.088 18.7482 17.751 18.7482H21.2504V21.2477ZM22.2502 17.7483H17.751C17.3532 17.7483 16.9717 17.5903 16.6905 17.3091C16.4092 17.0278 16.2512 16.6464 16.2512 16.2486C16.2512 15.8508 16.4092 15.4694 16.6905 15.1881C16.9717 14.9069 17.3532 14.7489 17.751 14.7489H22.2502V17.7483Z" fill="white" stroke="white" stroke-width="0.5"/>
<path d="M18.2557 16.9997C18.6699 16.9997 19.0056 16.664 19.0056 16.2499C19.0056 15.8357 18.6699 15.5 18.2557 15.5C17.8416 15.5 17.5059 15.8357 17.5059 16.2499C17.5059 16.664 17.8416 16.9997 18.2557 16.9997Z" fill="white" stroke="white" stroke-width="0.5"/>
<defs>
<linearGradient id="paint0_linear_583_5762" x1="20.5997" y1="20.9264" x2="31.5734" y2="6.95292" gradientUnits="userSpaceOnUse">
<stop stop-color="#5293F7"/>
<stop offset="1" stop-color="#68C5FA"/>
</linearGradient>
</defs>
</svg>
