<svg width="30" height="30" viewBox="0 0 30 30" fill="none" xmlns="http://www.w3.org/2000/svg">
<circle cx="15" cy="15" r="15" fill="url(#paint0_linear_583_5637)"/>
<path d="M15.0002 17.0998C13.7122 17.0998 13.6002 16.4978 13.6002 16.3998H12.2002C12.2002 17.0438 12.6622 18.1848 14.3002 18.4438V19.1998H15.7002V18.4438C17.1002 18.2058 17.8002 17.3028 17.8002 16.3998C17.8002 15.6158 17.4362 14.2998 15.0002 14.2998C13.6002 14.2998 13.6002 13.8588 13.6002 13.5998C13.6002 13.3408 14.0902 12.8998 15.0002 12.8998C15.9102 12.8998 15.9732 13.3478 15.9802 13.5998H17.3802C17.3707 13.1229 17.1992 12.6635 16.8939 12.2971C16.5885 11.9307 16.1675 11.6791 15.7002 11.5838V10.7998H14.3002V11.5628C12.9002 11.7938 12.2002 12.6968 12.2002 13.5998C12.2002 14.3838 12.5642 15.6998 15.0002 15.6998C16.4002 15.6998 16.4002 16.1758 16.4002 16.3998C16.4002 16.6238 15.9662 17.0998 15.0002 17.0998Z" fill="white"/>
<path d="M10.1 8H8V9.4H9.4V21.3C9.4 21.4857 9.47375 21.6637 9.60503 21.795C9.7363 21.9263 9.91435 22 10.1 22H19.9C20.0857 22 20.2637 21.9263 20.395 21.795C20.5263 21.6637 20.6 21.4857 20.6 21.3V9.4H22V8H10.1ZM19.2 20.6H10.8V9.4H19.2V20.6Z" fill="white"/>
<defs>
<linearGradient id="paint0_linear_583_5637" x1="20.5997" y1="20.9264" x2="31.5734" y2="6.95292" gradientUnits="userSpaceOnUse">
<stop stop-color="#41BE15"/>
<stop offset="1" stop-color="#85E724"/>
</linearGradient>
</defs>
</svg>
