<svg width="30" height="30" viewBox="0 0 30 30" fill="none" xmlns="http://www.w3.org/2000/svg">
<circle cx="15" cy="15" r="15" fill="url(#paint0_linear_583_5645)"/>
<path d="M10.9711 11.2634V20.0289H19.7114V11.2634L15.956 8.19072C15.7825 8.04887 15.5653 7.97139 15.3412 7.97139C15.1172 7.97139 14.9 8.04887 14.7265 8.19072L10.9711 11.2634ZM16.5707 7.43906L20.5038 10.6574C20.5596 10.7029 20.6046 10.7602 20.6355 10.8252C20.6664 10.8902 20.6824 10.9613 20.6825 11.0332V20.5144C20.6825 20.6432 20.6313 20.7667 20.5403 20.8578C20.4492 20.9488 20.3257 21 20.1969 21H10.4856C10.3568 21 10.2333 20.9488 10.1422 20.8578C10.0512 20.7667 10 20.6432 10 20.5144V11.0332C9.99995 10.9613 10.0159 10.8903 10.0466 10.8253C10.0773 10.7603 10.1221 10.703 10.1777 10.6574L14.1108 7.43906C14.4578 7.15513 14.8924 7 15.3408 7C15.7891 7 16.2237 7.15513 16.5707 7.43906Z" fill="white" stroke="white" stroke-width="0.5"/>
<path d="M15.3412 13.2308C15.5988 13.2308 15.8458 13.1285 16.0279 12.9464C16.21 12.7642 16.3123 12.5172 16.3123 12.2597C16.3123 12.0021 16.21 11.7551 16.0279 11.573C15.8458 11.3908 15.5988 11.2885 15.3412 11.2885C15.0836 11.2885 14.8366 11.3908 14.6545 11.573C14.4724 11.7551 14.3701 12.0021 14.3701 12.2597C14.3701 12.5172 14.4724 12.7642 14.6545 12.9464C14.8366 13.1285 15.0836 13.2308 15.3412 13.2308ZM15.3412 14.2019C14.8261 14.2019 14.3321 13.9973 13.9678 13.633C13.6036 13.2688 13.3989 12.7748 13.3989 12.2597C13.3989 11.7445 13.6036 11.2505 13.9678 10.8863C14.3321 10.522 14.8261 10.3174 15.3412 10.3174C15.8563 10.3174 16.3503 10.522 16.7146 10.8863C17.0788 11.2505 17.2835 11.7445 17.2835 12.2597C17.2835 12.7748 17.0788 13.2688 16.7146 13.633C16.3503 13.9973 15.8563 14.2019 15.3412 14.2019Z" fill="white" stroke="white" stroke-width="0.5"/>
<defs>
<linearGradient id="paint0_linear_583_5645" x1="20.5997" y1="20.9264" x2="31.5734" y2="6.95292" gradientUnits="userSpaceOnUse">
<stop stop-color="#E18835"/>
<stop offset="1" stop-color="#FAA568"/>
</linearGradient>
</defs>
</svg>
