<svg width="30" height="30" viewBox="0 0 30 30" fill="none" xmlns="http://www.w3.org/2000/svg">
<circle cx="15" cy="15" r="15" fill="url(#paint0_linear_583_5650)"/>
<path d="M21.44 10.8406H18.857C19.095 10.4529 19.235 9.99275 19.235 9.5C19.235 8.12138 18.1517 7 16.82 7C16.0955 7 15.4427 7.33333 15 7.8587C14.5573 7.33333 13.9045 7 13.18 7C11.8483 7 10.765 8.12138 10.765 9.5C10.765 9.99275 10.9033 10.4529 11.143 10.8406H8.56C8.25025 10.8406 8 11.0996 8 11.4203V15.0435C8 15.1232 8.063 15.1884 8.14 15.1884H8.84V21.4203C8.84 21.7409 9.09025 22 9.4 22H20.6C20.9097 22 21.16 21.7409 21.16 21.4203V15.1884H21.86C21.937 15.1884 22 15.1232 22 15.0435V11.4203C22 11.0996 21.7498 10.8406 21.44 10.8406ZM15.595 9.5C15.595 8.80072 16.1445 8.23188 16.82 8.23188C17.4955 8.23188 18.045 8.80072 18.045 9.5C18.045 10.1993 17.4955 10.7681 16.82 10.7681H15.595V9.5ZM13.18 8.23188C13.8555 8.23188 14.405 8.80072 14.405 9.5V10.7681H13.18C12.5045 10.7681 11.955 10.1993 11.955 9.5C11.955 8.80072 12.5045 8.23188 13.18 8.23188ZM9.19 13.9565V12.0725H14.405V13.9565H9.19ZM10.03 15.1884H14.405V20.7681H10.03V15.1884ZM19.97 20.7681H15.595V15.1884H19.97V20.7681ZM20.81 13.9565H15.595V12.0725H20.81V13.9565Z" fill="white"/>
<defs>
<linearGradient id="paint0_linear_583_5650" x1="20.5997" y1="20.9264" x2="31.5734" y2="6.95292" gradientUnits="userSpaceOnUse">
<stop stop-color="#D82323"/>
<stop offset="1" stop-color="#FA6868"/>
</linearGradient>
</defs>
</svg>
