<svg width="30" height="30" viewBox="0 0 30 30" fill="none" xmlns="http://www.w3.org/2000/svg">
<circle cx="15" cy="15" r="15" fill="url(#paint0_linear_583_5896)"/>
<path d="M22.4302 13.1362C22.4941 12.9821 22.5108 12.8125 22.4782 12.6488C22.4456 12.4852 22.3652 12.3349 22.2472 12.2169L18.0303 8L16.8377 9.19255L19.615 11.9698H9.0001V13.6566H21.6509C21.8177 13.6567 21.9808 13.6072 22.1195 13.5146C22.2582 13.422 22.3663 13.2903 22.4302 13.1362ZM9.0642 15.8638C9.00035 16.0179 8.98366 16.1875 9.01623 16.3512C9.04881 16.5148 9.12919 16.6651 9.24721 16.7831L13.4642 21L14.6567 19.8074L11.8794 17.0302H22.4943V15.3434H9.84349C9.67667 15.3432 9.51356 15.3926 9.37483 15.4852C9.23609 15.5779 9.12798 15.7096 9.0642 15.8638Z" fill="white"/>
<defs>
<linearGradient id="paint0_linear_583_5896" x1="20.5997" y1="20.9264" x2="31.5734" y2="6.95292" gradientUnits="userSpaceOnUse">
<stop stop-color="#8C2AD9"/>
<stop offset="1" stop-color="#AA6CF8"/>
</linearGradient>
</defs>
</svg>
