<svg width="18" height="18" viewBox="0 0 18 18" fill="none" xmlns="http://www.w3.org/2000/svg">
<path d="M16.4444 9C16.1378 9 15.8889 8.75111 15.8889 8.44444V2.89689L2.89689 15.8889H8.44444C8.59179 15.8889 8.7331 15.9474 8.83728 16.0516C8.94147 16.1558 9 16.2971 9 16.4444C9 16.5918 8.94147 16.7331 8.83728 16.8373C8.7331 16.9415 8.59179 17 8.44444 17H1.55556C1.24889 17 1 16.7511 1 16.4444V9.55556C1 9.40821 1.05853 9.2669 1.16272 9.16272C1.26691 9.05853 1.40821 9 1.55556 9C1.7029 9 1.84421 9.05853 1.94839 9.16272C2.05258 9.2669 2.11111 9.40821 2.11111 9.55556V15.1031L15.1031 2.11111H9.55556C9.40821 2.11111 9.2669 2.05258 9.16272 1.94839C9.05853 1.84421 9 1.7029 9 1.55556C9 1.40821 9.05853 1.26691 9.16272 1.16272C9.2669 1.05853 9.40821 1 9.55556 1H16.4444C16.7511 1 17 1.24889 17 1.55556V8.44444C17 8.75111 16.7511 9 16.4444 9Z" fill="black" stroke="black"/>
</svg>
