<svg width="20" height="20" viewBox="0 0 20 20" fill="none" xmlns="http://www.w3.org/2000/svg">
<path d="M11.7005 0C11.8515 4.76545e-06 11.9985 0.0480055 12.1204 0.137089C12.2423 0.226173 12.3329 0.351743 12.3791 0.495714L13.1631 2.93714C13.4924 3.09857 13.8075 3.28 14.1083 3.48429L16.6115 2.94429C16.7591 2.91271 16.9129 2.92889 17.0507 2.99051C17.1885 3.05212 17.3033 3.15599 17.3784 3.28714L19.3542 6.71429C19.4296 6.84537 19.4616 6.99707 19.4455 7.14753C19.4293 7.29798 19.3659 7.43941 19.2644 7.55143L17.5466 9.45143C17.5716 9.81576 17.5716 10.1814 17.5466 10.5457L19.2644 12.4486C19.3659 12.5606 19.4293 12.702 19.4455 12.8525C19.4616 13.0029 19.4296 13.1546 19.3542 13.2857L17.3784 16.7143C17.3031 16.8452 17.1882 16.9488 17.0504 17.0101C16.9126 17.0715 16.7589 17.0874 16.6115 17.0557L14.1083 16.5157C13.8089 16.7186 13.4924 16.9014 13.1646 17.0629L12.3791 19.5043C12.3329 19.6483 12.2423 19.7738 12.1204 19.8629C11.9985 19.952 11.8515 20 11.7005 20H7.74899C7.59809 20 7.45108 19.952 7.32914 19.8629C7.2072 19.7738 7.11662 19.6483 7.07044 19.5043L6.28783 17.0643C5.95942 16.9033 5.64265 16.7196 5.33985 16.5143L2.83806 17.0557C2.69047 17.0873 2.53668 17.0711 2.39886 17.0095C2.26103 16.9479 2.14628 16.844 2.07113 16.7129L0.0953472 13.2857C0.0199005 13.1546 -0.0120563 13.0029 0.00408448 12.8525C0.0202253 12.702 0.0836296 12.5606 0.185155 12.4486L1.90291 10.5457C1.87803 10.1823 1.87803 9.81767 1.90291 9.45429L0.185155 7.55143C0.0836296 7.43941 0.0202253 7.29798 0.00408448 7.14753C-0.0120563 6.99707 0.0199005 6.84537 0.0953472 6.71429L2.07113 3.28571C2.14648 3.15482 2.26133 3.05125 2.39914 2.9899C2.53694 2.92855 2.69062 2.91258 2.83806 2.94429L5.33985 3.48571C5.64207 3.28143 5.95853 3.09714 6.28783 2.93571L7.07187 0.495714C7.11789 0.352207 7.20804 0.226969 7.32941 0.137929C7.45078 0.0488877 7.59715 0.000608096 7.74757 0H11.6991H11.7005ZM11.1788 1.42857H8.27073L7.46104 3.95286L6.91506 4.22C6.64666 4.35162 6.38756 4.5015 6.13957 4.66857L5.63494 5.01143L3.04618 4.45143L1.59215 6.97714L3.36693 8.94571L3.32416 9.55143C3.30368 9.85012 3.30368 10.1499 3.32416 10.4486L3.36693 11.0543L1.5893 13.0229L3.04476 15.5486L5.63351 14.99L6.13815 15.3314C6.38613 15.4985 6.64523 15.6484 6.91363 15.78L7.45961 16.0471L8.27073 18.5714H11.1817L11.9942 16.0457L12.5388 15.78C12.8069 15.6487 13.0655 15.4988 13.3128 15.3314L13.816 14.99L16.4062 15.5486L17.8602 13.0229L16.084 11.0543L16.1268 10.4486C16.1474 10.1494 16.1474 9.84917 16.1268 9.55L16.084 8.94429L17.8617 6.97714L16.4062 4.45143L13.816 5.00857L13.3128 4.66857C13.0655 4.50116 12.8069 4.35127 12.5388 4.22L11.9942 3.95429L11.1802 1.42857H11.1788ZM9.72477 5.71429C10.859 5.71429 11.9468 6.16582 12.7488 6.96954C13.5508 7.77327 14.0013 8.86336 14.0013 10C14.0013 11.1366 13.5508 12.2267 12.7488 13.0305C11.9468 13.8342 10.859 14.2857 9.72477 14.2857C8.59055 14.2857 7.50279 13.8342 6.70077 13.0305C5.89876 12.2267 5.44819 11.1366 5.44819 10C5.44819 8.86336 5.89876 7.77327 6.70077 6.96954C7.50279 6.16582 8.59055 5.71429 9.72477 5.71429ZM9.72477 7.14286C8.96863 7.14286 8.24345 7.44388 7.70877 7.97969C7.1741 8.51551 6.87372 9.24224 6.87372 10C6.87372 10.7578 7.1741 11.4845 7.70877 12.0203C8.24345 12.5561 8.96863 12.8571 9.72477 12.8571C10.4809 12.8571 11.2061 12.5561 11.7408 12.0203C12.2754 11.4845 12.5758 10.7578 12.5758 10C12.5758 9.24224 12.2754 8.51551 11.7408 7.97969C11.2061 7.44388 10.4809 7.14286 9.72477 7.14286Z" fill="#597EF7"/>
</svg>
